<mxfile host="app.diagrams.net" modified="2022-06-22T06:05:24.749Z" agent="5.0 (Windows NT 10.0; Win64; x64) AppleWebKit/537.36 (KHTML, like Gecko) Chrome/102.0.0.0 Safari/537.36" etag="F3i7RP9pLetTXFs85m5R" version="20.0.2" type="github">
  <diagram id="5ZoykS0UEbNrT3gVsl8c" name="Page-1">
    <mxGraphModel dx="1422" dy="762" grid="1" gridSize="10" guides="1" tooltips="1" connect="1" arrows="1" fold="1" page="1" pageScale="1" pageWidth="827" pageHeight="1169" math="0" shadow="0">
      <root>
        <mxCell id="0" />
        <mxCell id="1" parent="0" />
        <mxCell id="jCKUjs8-rMFLQWBVa7Qn-1" value="" style="shape=umlLifeline;participant=umlActor;perimeter=lifelinePerimeter;whiteSpace=wrap;html=1;container=1;collapsible=0;recursiveResize=0;verticalAlign=top;spacingTop=36;outlineConnect=0;" parent="1" vertex="1">
          <mxGeometry x="19" y="120" width="20" height="710" as="geometry" />
        </mxCell>
        <mxCell id="jCKUjs8-rMFLQWBVa7Qn-2" value="Editor" style="shape=umlLifeline;perimeter=lifelinePerimeter;whiteSpace=wrap;html=1;container=1;collapsible=0;recursiveResize=0;outlineConnect=0;" parent="1" vertex="1">
          <mxGeometry x="203" y="120" width="100" height="710" as="geometry" />
        </mxCell>
        <mxCell id="jCKUjs8-rMFLQWBVa7Qn-3" value="Backend" style="shape=umlLifeline;perimeter=lifelinePerimeter;whiteSpace=wrap;html=1;container=1;collapsible=0;recursiveResize=0;outlineConnect=0;" parent="1" vertex="1">
          <mxGeometry x="364" y="120" width="100" height="710" as="geometry" />
        </mxCell>
        <mxCell id="jCKUjs8-rMFLQWBVa7Qn-4" value="Runner" style="shape=umlLifeline;perimeter=lifelinePerimeter;whiteSpace=wrap;html=1;container=1;collapsible=0;recursiveResize=0;outlineConnect=0;" parent="1" vertex="1">
          <mxGeometry x="480" y="120" width="110" height="710" as="geometry" />
        </mxCell>
        <mxCell id="jCKUjs8-rMFLQWBVa7Qn-5" value="DB" style="shape=umlLifeline;perimeter=lifelinePerimeter;whiteSpace=wrap;html=1;container=1;collapsible=0;recursiveResize=0;outlineConnect=0;" parent="1" vertex="1">
          <mxGeometry x="590" y="120" width="100" height="710" as="geometry" />
        </mxCell>
        <mxCell id="jCKUjs8-rMFLQWBVa7Qn-6" value="Samsung Account" style="shape=umlLifeline;perimeter=lifelinePerimeter;whiteSpace=wrap;html=1;container=1;collapsible=0;recursiveResize=0;outlineConnect=0;" parent="1" vertex="1">
          <mxGeometry x="700" y="120" width="100" height="710" as="geometry" />
        </mxCell>
      </root>
    </mxGraphModel>
  </diagram>
</mxfile>
